<?xml version="1.0" encoding="UTF-8"?>
<svg version="1.1" xmlns="http://www.w3.org/2000/svg" width="512" height="512">
<path d="M0 0 C1.77685874 -0.00407191 3.55371494 -0.00941725 5.33056641 -0.01593018 C10.12808515 -0.02953595 14.92540903 -0.02433311 19.72293091 -0.01479292 C24.7599538 -0.00716125 29.79696078 -0.01425163 34.83398438 -0.01895142 C43.29039484 -0.02439879 51.74672652 -0.01724413 60.203125 -0.00292969 C69.95923934 0.01339484 79.71516555 0.00810561 89.47127533 -0.0084089 C97.86991732 -0.02205284 106.2685029 -0.02392924 114.6671524 -0.0160929 C119.67355937 -0.01143235 124.67987811 -0.0107468 129.6862793 -0.02070236 C134.39451845 -0.02941217 139.10251666 -0.02327723 143.81072998 -0.00601959 C145.53155112 -0.0020761 147.25239278 -0.00315184 148.97320557 -0.00980759 C167.84604085 -0.07603559 185.14805011 4.58189934 199.1171875 17.90673828 C211.19988154 30.23141998 218.33083833 46.54330201 218.35017776 63.884202 C218.35401891 65.18047097 218.35786005 66.47673993 218.3618176 67.81228977 C218.36103744 69.24380217 218.36015867 70.67531451 218.35919189 72.10682678 C218.36177692 73.63304181 218.36479046 75.15925615 218.3681953 76.68546957 C218.37625256 80.87680278 218.37805416 85.06811886 218.37879276 89.2594589 C218.38064556 93.78112138 218.38819408 98.30277502 218.39492798 102.82443237 C218.4085032 112.71099706 218.41453487 122.59755769 218.41893864 132.48413014 C218.42170266 138.6596779 218.42594033 144.8352241 218.43044281 151.0107708 C218.44263485 168.11537738 218.45293401 185.21998271 218.4563179 202.32459354 C218.45653747 203.41909629 218.45675703 204.51359903 218.45698325 205.64126852 C218.45720153 206.73836465 218.45741981 207.83546078 218.4576447 208.96580225 C218.45808816 211.18887142 218.45853473 213.4119406 218.45898438 215.63500977 C218.4592058 216.7377248 218.45942723 217.84043984 218.45965537 218.97657048 C218.46360195 236.83767141 218.48105198 254.6987315 218.5043439 272.55981667 C218.52807467 290.90582234 218.54052055 309.25180754 218.54168582 327.59782881 C218.54260165 337.89504084 218.54833087 348.19219969 218.56650543 358.48939705 C218.58192976 367.25919672 218.58701315 376.02892675 218.57876733 384.79873741 C218.57486897 389.27020547 218.57575049 393.7415334 218.58982468 398.21298409 C218.6026126 402.31342694 218.60132346 406.41362507 218.58923396 410.51406782 C218.58728539 411.99055919 218.59031621 413.4670682 218.59907833 414.94353486 C218.70779337 434.51556265 213.63160925 449.9571647 200.3359375 464.43896484 C189.98997142 474.56857042 175.49043217 480.71814877 161.05513 480.65560913 C159.88257236 480.6624058 159.88257236 480.6624058 158.68632668 480.66933978 C156.08810487 480.68191802 153.49009444 480.68036768 150.8918457 480.67871094 C149.02015415 480.68470038 147.14846505 480.69150688 145.27677917 480.69906616 C140.20628053 480.71669291 135.13584944 480.72142019 130.06532311 480.72269773 C126.8925375 480.72412199 123.71976891 480.72839683 120.54698753 480.73369217 C109.46401255 480.75218277 98.3810856 480.76036416 87.2980957 480.75878906 C76.99049626 480.75758854 66.68310651 480.77867597 56.3755601 480.81027639 C47.5073185 480.8364889 38.63914516 480.84715424 29.77086514 480.84587824 C24.48261364 480.84536999 19.19454852 480.85097701 13.90633583 480.87223434 C8.92806747 480.89170018 3.95016164 480.89168441 -1.02812004 480.87720108 C-2.84647404 480.87512208 -4.66485123 480.87975917 -6.48316574 480.891922 C-25.84817491 481.01297813 -41.85984004 476.35703752 -55.98046875 462.44287109 C-66.43780223 451.47810677 -71.8913722 436.93811802 -71.91547108 421.90054512 C-71.91992892 420.60612625 -71.92438676 419.31170738 -71.92897969 417.9780637 C-71.92889041 416.54861839 -71.92870058 415.11917307 -71.92842102 413.68972778 C-71.93172234 412.16565065 -71.93544848 410.64157439 -71.9395625 409.11749923 C-71.94956028 404.93195993 -71.95329572 400.74643497 -71.95595181 396.56088543 C-71.95986152 392.04529908 -71.96943946 387.52972402 -71.97816467 383.0141449 C-71.99791127 372.10954136 -72.00799345 361.20493692 -72.01689246 350.30031997 C-72.02127872 345.16101669 -72.02664469 340.02171443 -72.03188133 334.88241196 C-72.04889255 317.7906802 -72.06338543 300.69894908 -72.07063007 283.60721016 C-72.07253987 279.17352421 -72.07446022 274.73983827 -72.07641602 270.30615234 C-72.07689976 269.20422424 -72.0773835 268.10229614 -72.0778819 266.96697627 C-72.08617739 249.12728833 -72.11150668 231.28766754 -72.14399669 213.44800891 C-72.17710496 195.11893922 -72.19508228 176.78990361 -72.19827431 158.46080387 C-72.20043603 148.17521364 -72.20913491 137.88972132 -72.23473549 127.60416031 C-72.25649406 118.84211893 -72.26446763 110.08019924 -72.25476871 101.31813391 C-72.25023879 96.85232725 -72.2520335 92.38677141 -72.27153015 87.92099953 C-72.28926912 83.82218953 -72.28807821 79.72381132 -72.27263286 75.62499605 C-72.27027293 74.152486 -72.27449518 72.67994519 -72.28646151 71.20748188 C-72.44703316 50.12056721 -66.17780122 32.8529747 -51.83203125 17.27099609 C-47.35102919 12.88388169 -42.45143695 9.901797 -36.90625 7.07568359 C-36.27074219 6.75003418 -35.63523438 6.42438477 -34.98046875 6.08886719 C-23.53935918 0.55535267 -12.47675695 -0.04825753 0 0 Z M-38.78125 29.38818359 C-39.39871094 29.88833984 -40.01617187 30.38849609 -40.65234375 30.90380859 C-48.6925114 37.99491414 -53.18546097 48.95347583 -54.78125 59.38818359 C-55.05360557 63.74969041 -55.04291008 68.09820129 -55.02175903 72.46705627 C-55.02346788 73.76514864 -55.02517673 75.06324101 -55.02693737 76.40066952 C-55.03138742 79.983278 -55.02343967 83.56576581 -55.01338124 87.14835894 C-55.00471508 91.01940238 -55.00766914 94.89043945 -55.00918579 98.76148987 C-55.01023264 105.46156478 -55.00397694 112.16160064 -54.99271011 118.86166573 C-54.97643097 128.54873635 -54.97124464 138.23578816 -54.96873413 147.92287099 C-54.96436081 163.64089279 -54.95106157 179.35889379 -54.93212891 195.0769043 C-54.9137607 210.34220274 -54.89963174 225.60749549 -54.89111328 240.87280273 C-54.89057729 241.82392171 -54.89004129 242.77504069 -54.88948905 243.75498146 C-54.88533002 251.19375775 -54.88141624 258.63253417 -54.87757993 266.07131064 C-54.85872494 302.51028739 -54.8184854 338.94921204 -54.78125 375.38818359 C29.69875 375.38818359 114.17875 375.38818359 201.21875 375.38818359 C201.30616412 319.51709661 201.30616412 319.51709661 201.36523438 263.64599609 C201.37110777 256.10986308 201.37716915 248.57373026 201.38354492 241.03759766 C201.38433617 240.09309919 201.38512741 239.14860072 201.38594264 238.17548108 C201.39898156 222.93813872 201.42262805 207.70083041 201.45020839 192.46350822 C201.47828804 176.81956072 201.49493167 161.17563103 201.50101548 145.53165936 C201.50512661 135.88273826 201.5180995 126.23391337 201.5424994 116.58502188 C201.5583882 109.96351932 201.56314325 103.34206632 201.55925413 96.7205461 C201.55733747 92.90339126 201.5602231 89.08640428 201.57636642 85.26927948 C201.59377697 81.12201767 201.58768685 76.97511009 201.57951355 72.82781982 C201.58825207 71.63323426 201.5969906 70.4386487 201.60599393 69.20786357 C201.52779377 54.48405392 197.7578819 41.88169496 187.46875 31.07568359 C172.1175971 16.59779987 155.0964911 16.21950126 135.15625 16.32568359 C133.51106907 16.33070779 131.86588665 16.33526907 130.22070312 16.33935547 C126.22001502 16.35029018 122.21939912 16.36750429 118.21875 16.38818359 C115.77110225 22.18335883 113.34612788 27.97987321 111.12109375 33.86474609 C110.79431641 34.71939453 110.46753906 35.57404297 110.13085938 36.45458984 C109.46762066 38.19575762 108.81433916 39.94074369 108.16992188 41.68896484 C107.84443359 42.53072266 107.51894531 43.37248047 107.18359375 44.23974609 C106.9012085 44.99078613 106.61882324 45.74182617 106.32788086 46.515625 C104.90195146 48.92303827 103.81026758 49.3645702 101.21875 50.38818359 C98.63867188 50.64215088 98.63867188 50.64215088 95.6875 50.64697266 C94.57955078 50.65327698 93.47160156 50.6595813 92.33007812 50.66607666 C90.5424707 50.66000397 90.5424707 50.66000397 88.71875 50.65380859 C87.49091797 50.65572205 86.26308594 50.6576355 84.99804688 50.65960693 C82.40234166 50.6609678 79.80662963 50.65727826 77.2109375 50.64892578 C73.23421972 50.63822522 69.25795371 50.64882477 65.28125 50.66162109 C62.76041567 50.66029948 60.23958162 50.65773706 57.71875 50.65380859 C56.52701172 50.65785706 55.33527344 50.66190552 54.10742188 50.66607666 C52.99947266 50.65977234 51.89152344 50.65346802 50.75 50.64697266 C49.28916992 50.64458588 49.28916992 50.64458588 47.79882812 50.64215088 C45.10725555 50.37720875 43.48697334 49.8368795 41.21875 48.38818359 C40.10961914 46.515625 40.10961914 46.515625 39.25390625 44.23974609 C38.92841797 43.39798828 38.60292969 42.55623047 38.26757812 41.68896484 C37.94208984 40.80595703 37.61660156 39.92294922 37.28125 39.01318359 C36.62738523 37.29662478 35.97242348 35.58048346 35.31640625 33.86474609 C34.98656738 32.99237305 34.65672852 32.12 34.31689453 31.22119141 C32.38438114 26.23566776 30.29900776 21.31350761 28.21875 16.38818359 C23.47226432 16.33807859 18.72593857 16.30213712 13.97924805 16.27832031 C12.37049675 16.26837291 10.76176298 16.25481016 9.15307617 16.23730469 C-8.91722049 16.04584626 -24.64978312 17.02645182 -38.78125 29.38818359 Z M47.21875 16.38818359 C48.36894006 22.87131042 48.36894006 22.87131042 53.21875 34.38818359 C66.41875 34.38818359 79.61875 34.38818359 93.21875 34.38818359 C97.39319044 25.61436016 97.39319044 25.61436016 99.21875 16.38818359 C82.05875 16.38818359 64.89875 16.38818359 47.21875 16.38818359 Z M-54.78125 392.38818359 C-55.69314611 424.02652759 -55.69314611 424.02652759 -41.03125 449.70068359 C-26.408858 463.49126287 -10.49450403 464.54086012 8.72167969 464.53344727 C10.27824992 464.53644398 11.83481941 464.53984768 13.39138794 464.54362488 C17.59820927 464.5524173 21.80501023 464.55480099 26.01183987 464.55544066 C28.6464172 464.55615391 31.28098943 464.55829343 33.91556549 464.56093788 C43.12470323 464.57017582 52.33382654 464.57427475 61.54296875 464.57348633 C70.098133 464.57288607 78.65323409 464.58343169 87.20838237 464.59922999 C94.57771115 464.61234872 101.9470194 464.61766841 109.31635976 464.61703092 C113.7069288 464.61677719 118.09744166 464.61955882 122.48799896 464.63020897 C126.62162084 464.63996312 130.75513366 464.63991955 134.88875961 464.63269234 C136.39588711 464.6316555 137.90302166 464.63395504 139.41013718 464.6400528 C156.91627252 464.70622982 171.69395542 463.21921885 185.21875 451.38818359 C185.83621094 450.88802734 186.45367187 450.38787109 187.08984375 449.87255859 C195.43896614 442.50896735 198.87615941 431.92984123 201.21875 421.38818359 C201.21875 411.81818359 201.21875 402.24818359 201.21875 392.38818359 C116.73875 392.38818359 32.25875 392.38818359 -54.78125 392.38818359 Z " fill="#036EF4" transform="translate(182.78125,15.61181640625)"/>
<path d="M0 0 C8.24072854 4.40320931 12.59205143 9.68453788 16.0625 18.375 C18.58609744 26.81378126 16.94703248 34.60593505 13.0625 42.375 C8.44432701 49.36656316 2.87135334 52.77204889 -4.9375 55.375 C-15.54074495 56.20635982 -23.1693959 55.17049816 -31.6875 48.75 C-37.05439255 43.85739098 -40.31021914 36.56806288 -41.17578125 29.40234375 C-41.47398291 21.00561287 -39.00132299 13.47946056 -33.6875 6.9375 C-25.2671252 -1.91841143 -11.34242461 -4.72111283 0 0 Z M-22.9375 21.375 C-24.38372779 25.17969156 -24.37379474 28.30850174 -22.8125 32.125 C-19.43935286 36.17277657 -17.40178696 38.13882468 -12.0625 39 C-7.84596067 38.7599693 -5.28907227 37.12277476 -2.29296875 34.22265625 C0.15364373 30.88764847 0.19354177 28.50281561 0.0625 24.375 C-1.62590254 20.2477938 -4.12468175 17.66269095 -7.9375 15.375 C-14.63530238 14.29470929 -18.84848912 15.8012186 -22.9375 21.375 Z " fill="#036EF4" transform="translate(267.9375,416.625)"/>
<path d="M0 0 C2.13552942 0.00315943 4.26967086 -0.02032412 6.4050293 -0.0456543 C7.77547027 -0.0479278 9.14591494 -0.04863055 10.51635742 -0.04760742 C11.75184326 -0.05058838 12.9873291 -0.05356934 14.26025391 -0.05664062 C18.04888486 0.35251327 20.47286562 1.3320584 23.70776367 3.31567383 C25.3021555 6.50445749 24.89195754 9.96082097 24.91088867 13.46411133 C24.91658875 14.2730484 24.92228882 15.08198547 24.92816162 15.91543579 C24.93761458 17.62858775 24.94414678 19.34175793 24.94799805 21.05493164 C24.95769974 23.67341926 24.98871785 26.29112065 25.02026367 28.90942383 C25.02679418 30.57348166 25.03204447 32.23754512 25.03588867 33.90161133 C25.04823547 34.68402191 25.06058228 35.4664325 25.07330322 36.27255249 C25.0600219 39.52090651 24.93608881 41.89373232 23.37475586 44.77905273 C19.86267766 48.0164605 15.6039201 47.47666718 11.11791992 47.48364258 C10.37698593 47.48697098 9.63605194 47.49029938 8.87266541 47.49372864 C7.30671814 47.49878736 5.74076012 47.50113729 4.17480469 47.50097656 C1.78261514 47.50316254 -0.60911275 47.52132753 -3.0012207 47.5402832 C-4.52400559 47.54321747 -6.04679266 47.54520204 -7.56958008 47.54614258 C-8.28323227 47.55332809 -8.99688446 47.56051361 -9.73216248 47.56791687 C-13.3967924 47.55110702 -16.25677057 47.48386366 -19.29223633 45.31567383 C-21.74844992 41.63135344 -21.59830906 38.80611546 -21.59301758 34.54223633 C-21.5973027 33.78147797 -21.60158783 33.0207196 -21.60600281 32.23690796 C-21.6117428 30.62808222 -21.61224879 29.01923052 -21.60791016 27.41040039 C-21.60475666 24.9564955 -21.62818927 22.5038041 -21.65356445 20.05004883 C-21.65583823 18.48494618 -21.65654058 16.9198403 -21.65551758 15.35473633 C-21.66472733 14.62437164 -21.67393707 13.89400696 -21.6834259 13.14151001 C-21.64340371 8.70373745 -21.1855931 5.74697158 -18.29223633 2.31567383 C-12.77682604 -0.86073734 -6.17530064 -0.01914492 0 0 Z M-4.29223633 17.31567383 C-4.29223633 21.60567383 -4.29223633 25.89567383 -4.29223633 30.31567383 C-0.33223633 30.31567383 3.62776367 30.31567383 7.70776367 30.31567383 C9.03005557 27.67109004 8.80453561 25.63806082 8.77026367 22.69067383 C8.74963867 20.91692383 8.72901367 19.14317383 8.70776367 17.31567383 C4.41776367 17.31567383 0.12776367 17.31567383 -4.29223633 17.31567383 Z " fill="#036EF3" transform="translate(327.292236328125,276.684326171875)"/>
<path d="M0 0 C2.16393827 -0.00218237 4.3273631 -0.02033848 6.49121094 -0.03930664 C7.8740217 -0.04224172 9.25683488 -0.04422575 10.63964844 -0.04516602 C11.89310059 -0.0492749 13.14655273 -0.05338379 14.43798828 -0.05761719 C17.78794718 0.18416499 19.90577967 0.50574087 22.80371094 2.18530273 C26.09842011 6.13552973 26.25799969 9.9849736 26.23730469 14.93530273 C26.24254654 15.67103516 26.24778839 16.40676758 26.25318909 17.16479492 C26.2595897 18.71458681 26.25829771 20.26442741 26.24975586 21.81420898 C26.24123591 24.1783731 26.27004541 26.54012639 26.30175781 28.90405273 C26.30336988 30.41446868 26.30279219 31.92488888 26.29980469 33.43530273 C26.31665565 34.48862793 26.31665565 34.48862793 26.33384705 35.56323242 C26.28378106 39.10800064 25.86775998 41.08378784 23.96020508 44.10717773 C20.23176261 47.70012489 16.35569641 47.35835084 11.46777344 47.38842773 C10.39322403 47.39697784 10.39322403 47.39697784 9.29696655 47.40570068 C7.78230257 47.4151381 6.26761816 47.42167967 4.75292969 47.42553711 C2.44396891 47.43523863 0.13590025 47.46627049 -2.17285156 47.49780273 C-3.64680463 47.50433378 -5.12076404 47.50958385 -6.59472656 47.51342773 C-7.28134369 47.52577454 -7.96796082 47.53812134 -8.67538452 47.55084229 C-13.01990143 47.53080257 -15.739284 46.84254686 -19.19628906 44.18530273 C-20.79020608 40.9974687 -20.40166613 37.5400499 -20.43457031 34.03686523 C-20.44264206 33.22792816 -20.45071381 32.41899109 -20.45903015 31.58554077 C-20.47286896 29.87239729 -20.48359203 28.15922625 -20.49145508 26.44604492 C-20.50867695 23.8273495 -20.55256385 21.2099138 -20.59667969 18.59155273 C-20.60680595 16.92749952 -20.61532227 15.26343558 -20.62207031 13.59936523 C-20.6395784 12.81695465 -20.65708649 12.03454407 -20.67512512 11.22842407 C-20.66095339 7.67280793 -20.51466783 5.61175192 -18.35717773 2.72192383 C-12.99664018 -1.08998707 -6.2979309 -0.00071276 0 0 Z M-4.19628906 17.18530273 C-4.19628906 21.47530273 -4.19628906 25.76530273 -4.19628906 30.18530273 C0.09371094 30.18530273 4.38371094 30.18530273 8.80371094 30.18530273 C8.80371094 25.89530273 8.80371094 21.60530273 8.80371094 17.18530273 C4.51371094 17.18530273 0.22371094 17.18530273 -4.19628906 17.18530273 Z " fill="#036EF3" transform="translate(180.1962890625,276.814697265625)"/>
<path d="M0 0 C1.17018677 -0.00361794 1.17018677 -0.00361794 2.36401367 -0.00730896 C4.00802714 -0.00633253 5.65207432 0.00701253 7.29589844 0.03198242 C9.80517824 0.0663061 12.31093578 0.05263088 14.8203125 0.03320312 C16.42188991 0.04010199 18.02345828 0.04977475 19.625 0.0625 C20.37096436 0.05754013 21.11692871 0.05258026 21.88549805 0.04747009 C25.31599254 0.12461305 27.71645196 0.57987959 30.78271484 2.14501953 C33.59865999 5.59094519 33.53240056 8.67288877 33.4765625 12.9375 C33.48134613 13.7412355 33.48612976 14.54497101 33.49105835 15.37306213 C33.49445524 17.07009848 33.48526725 18.76720043 33.46435547 20.46411133 C33.43761728 23.05504179 33.46408735 25.64162714 33.49609375 28.23242188 C33.49278892 29.88412411 33.48638117 31.53582364 33.4765625 33.1875 C33.48668365 33.95847519 33.49680481 34.72945038 33.50723267 35.52378845 C33.42500357 39.31927863 32.93016071 41.4558117 30.78271484 44.61499023 C27.0369931 47.15472874 24.0053932 47.3524014 19.625 47.29296875 C18.45481323 47.3001442 18.45481323 47.3001442 17.26098633 47.3074646 C15.61700414 47.31085633 13.97295385 47.30170456 12.32910156 47.28076172 C9.81942705 47.25398017 7.31422371 47.28052825 4.8046875 47.3125 C3.20311518 47.30919577 1.60154562 47.30278924 0 47.29296875 C-1.11894653 47.30815048 -1.11894653 47.30815048 -2.26049805 47.32363892 C-5.99702748 47.24001478 -8.0535337 46.72045613 -11.15771484 44.59912109 C-13.71679952 40.85437438 -13.91110486 37.82988531 -13.8515625 33.44140625 C-13.85634613 32.66128174 -13.86112976 31.88115723 -13.86605835 31.07739258 C-13.86945008 29.43341039 -13.86029831 27.7893601 -13.83935547 26.14550781 C-13.81257392 23.6358333 -13.839122 21.13062996 -13.87109375 18.62109375 C-13.86778952 17.01952143 -13.86138299 15.41795187 -13.8515625 13.81640625 C-13.86168365 13.07044189 -13.87180481 12.32447754 -13.88223267 11.5559082 C-13.79859707 7.81886687 -13.27825698 5.76181054 -11.15771484 2.65649414 C-7.40802179 0.09680313 -4.39051717 -0.07803375 0 0 Z M3.8125 17.62890625 C3.8125 21.58890625 3.8125 25.54890625 3.8125 29.62890625 C7.7725 29.62890625 11.7325 29.62890625 15.8125 29.62890625 C15.8125 25.66890625 15.8125 21.70890625 15.8125 17.62890625 C11.8525 17.62890625 7.8925 17.62890625 3.8125 17.62890625 Z " fill="#036FF4" transform="translate(319.1875,130.37109375)"/>
<path d="M0 0 C0.78249619 -0.0038269 1.56499237 -0.00765381 2.37120056 -0.01159668 C4.01937147 -0.01430977 5.66758587 -0.00699077 7.31567383 0.00976562 C9.83577429 0.03121536 12.35303372 0.00993145 14.87304688 -0.015625 C16.47787086 -0.01298218 18.08269308 -0.00785813 19.6875 0 C20.81418846 -0.01214539 20.81418846 -0.01214539 21.96363831 -0.02453613 C25.48302503 0.03846867 27.4079591 0.24274092 30.22045898 2.43945312 C33.06107499 6.25604367 32.9531684 9.37791857 32.98046875 13.98828125 C32.98616882 14.72825851 32.9918689 15.46823578 32.9977417 16.2306366 C33.00719393 17.79835581 33.01372657 19.36609491 33.01757812 20.93383789 C33.02726407 23.32408707 33.0582757 25.71346905 33.08984375 28.10351562 C33.09637598 29.62759907 33.10162559 31.15168865 33.10546875 32.67578125 C33.11781555 33.38740921 33.13016235 34.09903717 33.1428833 34.83222961 C33.12325055 39.24060502 32.49115002 42.02749982 29.77734375 45.53125 C26.65241956 47.09371209 23.31538942 46.73623127 19.8828125 46.76953125 C18.70625847 46.78163887 18.70625847 46.78163887 17.50593567 46.79399109 C15.84406748 46.80783062 14.18217088 46.81855337 12.52026367 46.82641602 C9.9849624 46.84361353 7.45097061 46.88749655 4.91601562 46.93164062 C3.30079083 46.94176915 1.68555496 46.95028476 0.0703125 46.95703125 C-0.68506302 46.97453934 -1.44043854 46.99204742 -2.21870422 47.01008606 C-5.68184637 46.99589436 -8.09180152 46.59681151 -11.19946289 45.03979492 C-14.04064242 41.51703401 -13.94174388 38.30724858 -13.88671875 33.96875 C-13.8938942 32.72629517 -13.8938942 32.72629517 -13.9012146 31.45874023 C-13.90461158 29.71042986 -13.89542307 27.9620558 -13.87451172 26.21386719 C-13.84773957 23.53957336 -13.8742624 20.86947598 -13.90625 18.1953125 C-13.90294586 16.49478241 -13.89653953 14.79425494 -13.88671875 13.09375 C-13.8968399 12.29573975 -13.90696106 11.49772949 -13.91738892 10.67553711 C-13.83961384 6.98646412 -13.54470924 4.92864904 -11.19506836 2.02929688 C-7.42106287 0.12726011 -4.13497991 -0.04469437 0 0 Z M2.77734375 17.53125 C2.77734375 21.49125 2.77734375 25.45125 2.77734375 29.53125 C7.06734375 29.53125 11.35734375 29.53125 15.77734375 29.53125 C15.77734375 25.57125 15.77734375 21.61125 15.77734375 17.53125 C11.48734375 17.53125 7.19734375 17.53125 2.77734375 17.53125 Z " fill="#036EF4" transform="translate(173.22265625,130.46875)"/>
<path d="M0 0 C0.680625 0.06445312 1.36125 0.12890625 2.0625 0.1953125 C4.88256482 1.18460943 5.61792904 2.2210846 7 4.875 C7.29355723 7.63789156 7.4199015 10.12104129 7.375 12.875 C7.38660156 13.5865625 7.39820313 14.298125 7.41015625 15.03125 C7.39256155 18.17483587 7.19173591 20.51023412 5.71875 23.3125 C3.2168749 25.58693191 1.29068251 25.78054322 -1.99609375 26.046875 C-5.26129484 25.76681877 -6.84630294 24.2244877 -9 21.875 C-10.05336511 18.71490467 -10.20032888 16.3196864 -10.25 13 C-10.28867187 11.45699219 -10.28867187 11.45699219 -10.328125 9.8828125 C-9.95207858 6.4357203 -9.06101514 4.63907171 -7 1.875 C-3.88134716 -0.2041019 -3.46260478 -0.40659374 0 0 Z " fill="#036EF3" transform="translate(345,231.125)"/>
<path d="M0 0 C2.86133707 2.75951013 3.90881999 4.42073876 4.53125 8.375 C4.5209375 9.57125 4.510625 10.7675 4.5 12 C4.5103125 13.19625 4.520625 14.3925 4.53125 15.625 C3.90926596 19.57642799 2.84524122 21.23110693 0 24 C-4.00803597 25.1659741 -6.05282711 25.43240501 -9.875 23.6875 C-12 22 -12 22 -13 20 C-13.17704592 17.35882311 -13.27741548 14.76803404 -13.3125 12.125 C-13.34150391 11.40441406 -13.37050781 10.68382812 -13.40039062 9.94140625 C-13.44312751 6.37123285 -13.32364848 4.4177401 -11.10546875 1.5546875 C-7.09079738 -1.40976371 -4.88042884 -1.17803455 0 0 Z " fill="#036EF4" transform="translate(319,232)"/>
<path d="M0 0 C0.680625 0.06445312 1.36125 0.12890625 2.0625 0.1953125 C4.88256482 1.18460943 5.61792904 2.2210846 7 4.875 C7.29355723 7.63789156 7.4199015 10.12104129 7.375 12.875 C7.38660156 13.5865625 7.39820313 14.298125 7.41015625 15.03125 C7.39256155 18.17483587 7.19173591 20.51023412 5.71875 23.3125 C3.2168749 25.58693191 1.29068251 25.78054322 -1.99609375 26.046875 C-5.26129484 25.76681877 -6.84630294 24.2244877 -9 21.875 C-10.05336511 18.71490467 -10.20032888 16.3196864 -10.25 13 C-10.28867188 11.45699219 -10.28867188 11.45699219 -10.328125 9.8828125 C-9.95207858 6.4357203 -9.06101514 4.63907171 -7 1.875 C-3.88134716 -0.2041019 -3.46260478 -0.40659374 0 0 Z " fill="#036EF3" transform="translate(257,231.125)"/>
<path d="M0 0 C2.1875 1.5546875 2.1875 1.5546875 4 4 C4.40100915 6.83065284 4.56122899 9.18346659 4.5 12 C4.51546875 12.7115625 4.5309375 13.423125 4.546875 14.15625 C4.52104197 17.61787655 4.269572 19.63631019 2.1875 22.4453125 C-0.86249365 24.61298656 -3.29359074 24.86762824 -7 25 C-9.60443665 24.22570802 -10.59595682 23.60968523 -12.08984375 21.35546875 C-13.32247847 18.16543124 -13.26445649 15.41173178 -13.25 12 C-13.25515625 10.783125 -13.2603125 9.56625 -13.265625 8.3125 C-13.01784963 5.22259533 -12.68845897 3.54781802 -11 1 C-7.43300025 -1.77433314 -4.20504308 -1.05126077 0 0 Z " fill="#036EF4" transform="translate(231,232)"/>
<path d="M0 0 C0.680625 0.06445312 1.36125 0.12890625 2.0625 0.1953125 C4.8815579 1.1842562 5.61512512 2.22383281 7 4.875 C7.31988233 7.64154989 7.4649944 10.11556211 7.4375 12.875 C7.4674707 13.94234375 7.4674707 13.94234375 7.49804688 15.03125 C7.49479082 18.52173815 7.28388476 20.49909327 5.15625 23.31640625 C2.34412194 25.34908578 0.46567413 25.80427196 -3 25.875 C-5.80290419 24.66465501 -7.46048805 23.71340533 -9.12109375 21.1328125 C-10.2236825 18.3003845 -10.30101547 15.97324521 -10.3125 12.9375 C-10.32925781 11.91785156 -10.34601563 10.89820313 -10.36328125 9.84765625 C-9.94709088 6.44205546 -9.03492834 4.61524308 -7 1.875 C-3.88134716 -0.2041019 -3.46260478 -0.40659374 0 0 Z " fill="#036EF4" transform="translate(257,298.125)"/>
<path d="M0 0 C2.16015625 1.5546875 2.16015625 1.5546875 4 4 C4.37389945 6.82632655 4.51639727 9.19023928 4.4375 12 C4.44458984 12.7115625 4.45167969 13.423125 4.45898438 14.15625 C4.4209204 17.29506426 4.18830825 19.64284392 2.71484375 22.4375 C0.21629996 24.71407749 -1.71069167 24.90565457 -4.99609375 25.171875 C-8.26129484 24.89181877 -9.84630294 23.3494877 -12 21 C-13.05336511 17.83990467 -13.20032888 15.4446864 -13.25 12.125 C-13.28867188 10.58199219 -13.28867188 10.58199219 -13.328125 9.0078125 C-12.95513784 5.58876353 -12.0044298 3.76405479 -10 1 C-6.62055069 -1.56372016 -3.97046734 -1.15805297 0 0 Z " fill="#036EF4" transform="translate(260,165)"/>
<path d="M0 0 C2.58455285 1.89533875 2.96275506 2.88826517 4 6 C4.1447963 7.95475009 4.22067502 9.9151138 4.25 11.875 C4.27578125 12.90367187 4.3015625 13.93234375 4.328125 14.9921875 C3.95513784 18.41123647 3.0044298 20.23594521 1 23 C-1.54229606 24.92863839 -2.78345018 25.00902291 -6 24.875 C-9.58743852 23.82866377 -10.75791821 22.97992187 -13 20 C-13.37389945 17.17367345 -13.51639727 14.80976072 -13.4375 12 C-13.44458984 11.2884375 -13.45167969 10.576875 -13.45898438 9.84375 C-13.4205408 6.67363342 -13.19838562 4.36091144 -11.66015625 1.5625 C-8.03804536 -1.84654555 -4.5410687 -0.97308615 0 0 Z " fill="#036FF4" transform="translate(290,299)"/>
<path d="M0 0 C2.45450528 1.64064301 3.7772984 2.90646329 4.37841797 5.8581543 C4.53975049 8.08614102 4.5454966 10.26687524 4.5 12.5 C4.51546875 13.25925781 4.5309375 14.01851563 4.546875 14.80078125 C4.52098174 18.49704423 4.40638982 20.42962832 2.21875 23.5 C-0.77293543 25.52254789 -2.58459443 25.56852988 -6.09765625 25.3984375 C-8.99766139 24.79104423 -10.28308671 23.33500208 -12 21 C-13.40053506 18.19892988 -13.2075504 15.81108319 -13.25 12.6875 C-13.27578125 11.55699219 -13.3015625 10.42648437 -13.328125 9.26171875 C-12.9685426 5.68729849 -12.14022123 3.85189674 -10 1 C-6.87057535 -0.56471233 -3.38917777 -0.69701958 0 0 Z " fill="#036FF4" transform="translate(260,265)"/>
<path d="M0 0 C2.45148431 1.64150355 3.7699104 2.91632923 4.39453125 5.8581543 C4.57597532 8.08625652 4.5947535 10.26502208 4.5625 12.5 C4.58634766 13.25925781 4.61019531 14.01851562 4.63476562 14.80078125 C4.62412707 18.85052626 4.52440448 20.43307623 1.6875 23.5 C-1.83893553 25.46824309 -4.02025028 25.57887269 -8 25 C-10.36497439 23.13291495 -11.66030715 21.67938569 -13 19 C-13.14901491 16.89946284 -13.22138453 14.79312175 -13.25 12.6875 C-13.27578125 11.55699219 -13.3015625 10.42648438 -13.328125 9.26171875 C-12.9685426 5.68729849 -12.14022123 3.85189674 -10 1 C-6.87057535 -0.56471233 -3.38917777 -0.69701958 0 0 Z " fill="#036EF4" transform="translate(348,198)"/>
<path d="M0 0 C2.45148431 1.64150355 3.7699104 2.91632923 4.39453125 5.8581543 C4.57597532 8.08625652 4.5947535 10.26502208 4.5625 12.5 C4.58634766 13.25925781 4.61019531 14.01851562 4.63476562 14.80078125 C4.62412707 18.85052626 4.52440448 20.43307623 1.6875 23.5 C-1.83893553 25.46824309 -4.02025028 25.57887269 -8 25 C-10.36497439 23.13291495 -11.66030715 21.67938569 -13 19 C-13.14901491 16.89946284 -13.22138453 14.79312175 -13.25 12.6875 C-13.27578125 11.55699219 -13.3015625 10.42648438 -13.328125 9.26171875 C-12.9685426 5.68729849 -12.14022123 3.85189674 -10 1 C-6.87057535 -0.56471233 -3.38917777 -0.69701958 0 0 Z " fill="#036EF4" transform="translate(260,198)"/>
<path d="M0 0 C2.1953125 1.5859375 2.1953125 1.5859375 4 4 C4.53125 7.49609375 4.53125 7.49609375 4.5 11.4375 C4.5103125 12.73558594 4.520625 14.03367187 4.53125 15.37109375 C3.9292833 19.48305746 2.95361138 21.13215592 0 24 C-3.63293114 25.23674251 -5.24191953 25.34458203 -8.75 23.75 C-11 22 -11 22 -13 19 C-13.3359375 15.8203125 -13.3359375 15.8203125 -13.375 12.125 C-13.40335938 10.91070312 -13.43171875 9.69640625 -13.4609375 8.4453125 C-12.92423923 4.43372036 -11.81933478 2.84029638 -9 0 C-5.81452856 -1.59273572 -3.39809153 -0.76164121 0 0 Z " fill="#036EF4" transform="translate(231,299)"/>
<path d="M0 0 C2.96589962 2.85863381 3.9292382 4.51663448 4.53125 8.62890625 C4.5209375 9.92699219 4.510625 11.22507813 4.5 12.5625 C4.5103125 13.86316406 4.520625 15.16382813 4.53125 16.50390625 C4 20 4 20 2.18359375 22.40234375 C-0.92205275 24.67463251 -3.17392522 25 -7 25 C-9.80189446 23.23358828 -11.51524911 21.96950178 -13 19 C-13.17522676 16.73354234 -13.26728256 14.46027146 -13.3125 12.1875 C-13.34988281 10.96417969 -13.38726562 9.74085938 -13.42578125 8.48046875 C-12.92787495 4.41042731 -11.90766958 2.83432296 -9 0 C-5.39297148 -1.20234284 -3.64185324 -1.0405295 0 0 Z " fill="#036EF4" transform="translate(231,165)"/>
<path d="M0 0 C2.69140625 1.4921875 2.69140625 1.4921875 5 4 C5.71063935 6.85230244 5.65436951 9.57507339 5.5625 12.5 C5.57345703 13.25925781 5.58441406 14.01851562 5.59570312 14.80078125 C5.54722328 18.4917132 5.40107679 20.43831697 3.21484375 23.5 C0.2258693 25.52427899 -1.58603076 25.56846034 -5.09765625 25.3984375 C-7.99766139 24.79104423 -9.28308671 23.33500208 -11 21 C-12.4097034 18.1805932 -12.16984647 15.76732774 -12.1875 12.625 C-12.20167969 11.48289063 -12.21585938 10.34078125 -12.23046875 9.1640625 C-12.00791859 6.10871281 -11.71541768 4.49618918 -10 2 C-6.2626144 -0.4915904 -4.42668417 -0.45793285 0 0 Z " fill="#036EF4" transform="translate(259,131)"/>
<path d="M0 0 C2.9336317 0.60841232 4.19624742 2.00599639 5.90234375 4.39453125 C6.91408173 7.42974519 7.06807889 9.59186204 7.08984375 12.76953125 C7.10402344 13.70539063 7.11820312 14.64125 7.1328125 15.60546875 C6.8837995 18.61894808 6.28948182 20.71242375 4.90234375 23.39453125 C1.68797846 25.53744144 -0.27192234 25.69478916 -4.0625 25.85546875 C-7.19634664 25.14569158 -8.24257605 24.01202902 -10.09765625 21.39453125 C-10.67804623 18.54684088 -10.6566833 15.79177543 -10.59765625 12.89453125 C-10.613125 12.13527344 -10.62859375 11.37601563 -10.64453125 10.59375 C-10.61863799 6.89748702 -10.50404607 4.96490293 -8.31640625 1.89453125 C-5.32466507 -0.12805433 -3.51347412 -0.17665512 0 0 Z " fill="#036DF4" transform="translate(287.09765625,197.60546875)"/>
<path d="M0 0 C3.91851711 0.64121189 5.06308226 1.45749219 7.4375 4.5625 C8.83803506 7.36357012 8.6450504 9.75141681 8.6875 12.875 C8.71328125 14.00550781 8.7390625 15.13601562 8.765625 16.30078125 C8.4060426 19.87520151 7.57772123 21.71060326 5.4375 24.5625 C2.29878812 26.13185594 -0.10105822 25.91451103 -3.5625 25.5625 C-7.08888399 22.8703694 -8.41208086 21.376533 -9.2265625 16.96875 C-9.21367187 15.6796875 -9.20078125 14.390625 -9.1875 13.0625 C-9.20039063 11.7734375 -9.21328125 10.484375 -9.2265625 9.15625 C-8.1923654 3.55941864 -5.61814873 0.88707611 0 0 Z " fill="#036EF4" transform="translate(197.5625,197.4375)"/>
<path d="M0 0 C2.90717073 2.21863029 3.83981643 3.51944929 5 7 C5.1447963 8.95475009 5.22067502 10.9151138 5.25 12.875 C5.27578125 13.90367187 5.3015625 14.93234375 5.328125 15.9921875 C4.95503198 19.41220687 4.03027507 21.25025853 2 24 C-1.12942465 25.56471233 -4.61082223 25.69701958 -8 25 C-10.45148431 23.35849645 -11.7699104 22.08367077 -12.39453125 19.1418457 C-12.57597532 16.91374348 -12.5947535 14.73497792 -12.5625 12.5 C-12.58634766 11.74074219 -12.61019531 10.98148438 -12.63476562 10.19921875 C-12.62412707 6.14947374 -12.52440448 4.56692377 -9.6875 1.5 C-6.16106447 -0.46824309 -3.97974972 -0.57887269 0 0 Z " fill="#036EF4" transform="translate(289,131)"/>
<path d="M0 0 C2.6484375 1.46875 2.6484375 1.46875 5 4 C5.74380521 7.01444791 5.69906114 9.90918155 5.625 13 C5.65400391 14.21042969 5.65400391 14.21042969 5.68359375 15.4453125 C5.64905708 19.6311574 5.58159522 21.37396395 2.6484375 24.53125 C-0.6133688 26.34015733 -2.32232021 26.61294663 -6 26 C-8.6484375 24.53125 -8.6484375 24.53125 -11 22 C-11.74380521 18.98555209 -11.69906114 16.09081845 -11.625 13 C-11.64433594 12.19304687 -11.66367188 11.38609375 -11.68359375 10.5546875 C-11.64905708 6.3688426 -11.58159522 4.62603605 -8.6484375 1.46875 C-5.3866312 -0.34015733 -3.67767979 -0.61294663 0 0 Z " fill="#036DF4" transform="translate(171,231)"/>
<path d="M0 0 C0.66 -0.0103125 1.32 -0.020625 2 -0.03125 C5.06923034 0.78401431 6.15570952 1.91152214 8 4.5 C8.58088831 7.34755041 8.55902575 10.10281952 8.5 13 C8.51546875 13.75925781 8.5309375 14.51851562 8.546875 15.30078125 C8.52098174 18.99704423 8.40638982 20.92962832 6.21875 24 C3.88343324 25.5788057 2.78310279 26.04348598 0 26 C-0.66 26.0103125 -1.32 26.020625 -2 26.03125 C-5.06923034 25.21598569 -6.15570952 24.08847786 -8 21.5 C-8.58088831 18.65244959 -8.55902575 15.89718048 -8.5 13 C-8.51546875 12.24074219 -8.5309375 11.48148438 -8.546875 10.69921875 C-8.52098174 7.00295577 -8.40638982 5.07037168 -6.21875 2 C-3.88343324 0.4211943 -2.78310279 -0.04348598 0 0 Z " fill="#036FF4" transform="translate(168,197.5)"/>
</svg>
